<svg width="160" height="28" viewBox="0 0 160 28" fill="none" xmlns="http://www.w3.org/2000/svg">
<path fill-rule="evenodd" clip-rule="evenodd" d="M79.1841 26.1352H75.176V24.2121C74.0558 25.2972 72.3426 26.2401 70.0322 26.2401C64.9 26.24 61.4638 22.8501 61.3577 17.5374L61.3555 17.2895C61.3555 11.8309 64.8186 8.33267 70.0322 8.33259C72.2004 8.33259 74.0908 9.17264 75.176 10.3606V2.31802H79.1841V26.1352ZM70.2052 12.0408C67.1598 12.0408 65.1314 14.2791 65.1314 17.2895C65.1314 20.3 67.1597 22.5383 70.2052 22.5383C73.2508 22.5383 75.2437 20.3 75.2437 17.2895C75.2437 14.2812 73.2507 12.0408 70.2052 12.0408Z" fill="#141414"/>
<path d="M22.3804 5.64142C23.0805 3.81676 24.1854 1.41663 27.5502 1.78849C30.8299 2.31796 31.3902 4.43798 31.3902 9.04781V22.2603H34.4862V26.1396H27.4825V7.20135C27.4825 6.01992 26.5134 5.64135 26.019 7.10274L19.5076 26.1396H13.093L13.1343 7.23856C13.1343 6.03087 12.1806 5.59099 11.6533 7.10274L5.13114 26.1396H5.12891L1.52344 24.5206L8.10884 5.64142C8.84397 3.7511 9.89443 1.445 13.1697 1.78849C16.506 2.31801 17.0289 4.46431 17.0289 9.04781L16.9962 21.359L22.3804 5.64142Z" fill="#141414"/>
<path d="M40.5138 26.1396H36.6653V8.69132H40.5138V26.1396Z" fill="#141414"/>
<path d="M52.131 8.43716C56.4695 8.43716 59.0687 10.9905 59.0688 15.644V26.1393H55.2203V16.4843C55.2203 13.406 53.7043 12.0758 51.3261 12.0757C48.6679 12.0757 47.3374 13.896 47.3374 16.4843V26.1393H43.4893V8.69094H47.3374V10.6405C48.1425 9.59033 49.7157 8.43721 52.131 8.43716Z" fill="#141414"/>
<path d="M38.6078 1.76877C39.9708 1.76877 41.0671 2.86499 41.0671 4.26086C41.0671 5.65666 39.9708 6.75257 38.6078 6.75257C37.2448 6.75257 36.1489 5.65666 36.1488 4.26086C36.1488 2.865 37.2448 1.76878 38.6078 1.76877Z" fill="#141414"/>
<path d="M133.656 8.45092C136.384 8.45096 138.449 9.46591 140.057 11.109L137.224 13.6621C136.349 12.717 135.196 12.0869 133.656 12.0869C130.647 12.0869 128.617 14.2551 128.617 17.4056C128.617 20.5561 130.645 22.7243 133.656 22.7243C136.666 22.7242 138.729 20.5561 138.729 17.4056H142.578C142.578 22.5142 138.729 26.3628 133.656 26.3629C128.661 26.3629 124.82 22.6675 124.701 17.6456L124.698 17.4078C124.698 12.2642 128.512 8.45092 133.656 8.45092Z" fill="#141414"/>
<path fill-rule="evenodd" clip-rule="evenodd" d="M113.475 8.45092C115.783 8.45092 117.743 9.536 118.478 10.479V8.65856H122.397V26.1508H118.478V24.3304C117.743 25.2756 115.82 26.3584 113.475 26.3584C108.549 26.3584 104.811 22.7651 104.695 17.6464L104.693 17.4078C104.693 12.1592 108.471 8.45096 113.475 8.45092ZM113.613 12.1591C110.777 12.1591 108.469 14.1873 108.469 17.4078C108.469 20.6284 110.707 22.6566 113.613 22.6566C116.518 22.6565 118.616 20.6283 118.616 17.4078C118.616 14.1895 116.448 12.1592 113.613 12.1591Z" fill="#141414"/>
<path d="M147.916 14.0844L153.76 8.66079H158.807L153.898 13.7454L159.917 26.1549H155.543L151.036 16.3927L147.916 19.2807V26.1549H144.068V2.32471H147.916V14.0844Z" fill="#141414"/>
<path d="M100.205 6.0727L91.2851 11.9187H94.7376C101.982 11.9187 102.737 17.023 102.737 19.2327C102.737 21.5343 101.925 23.3896 100.389 24.5994C98.759 25.8837 96.744 26.1527 95.3416 26.1527H84.0325V22.5669H94.3156L95.1555 22.5647C98.6649 22.5647 98.8793 20.1208 98.8793 19.2216C98.8793 18.2766 98.9294 15.2773 94.0146 15.2618H84.0325V11.9228H85.3606L94.3354 5.98934H84.7283V2.33587H100.205V6.0727Z" fill="#141414"/>
<path d="M5.12909 2.31592H1.25V26.1375H5.12909V2.31592Z" fill="#78AAFA"/>
<path d="M85.3605 2.33545H81.4836V26.1527H85.3605V2.33545Z" fill="#78AAFA"/>
</svg>
